<mxfile host="app.diagrams.net" modified="2024-02-12T06:35:51.821Z" agent="Mozilla/5.0 (Windows NT 10.0; Win64; x64) AppleWebKit/537.36 (KHTML, like Gecko) Chrome/121.0.0.0 Safari/537.36 Edg/121.0.0.0" etag="EozFh_4VRgIoWtO8HVeU" version="22.1.21" type="device">
  <diagram id="6a731a19-8d31-9384-78a2-239565b7b9f0" name="Page-1">
    <mxGraphModel dx="1389" dy="906" grid="1" gridSize="10" guides="1" tooltips="1" connect="1" arrows="1" fold="1" page="1" pageScale="1" pageWidth="1169" pageHeight="827" background="none" math="0" shadow="0">
      <root>
        <mxCell id="0" />
        <mxCell id="1" parent="0" />
        <mxCell id="45" value="" style="edgeStyle=elbowEdgeStyle;elbow=horizontal;exitX=1;exitY=0.5;exitPerimeter=0;entryX=0.905;entryY=0.5;entryPerimeter=0;fontStyle=1;strokeColor=#003366;strokeWidth=1;html=1;" parent="1" target="34" edge="1">
          <mxGeometry width="100" height="100" as="geometry">
            <mxPoint x="380.5" y="1119.25" as="sourcePoint" />
            <mxPoint x="100" as="targetPoint" />
            <Array as="points">
              <mxPoint x="950" y="1320" />
            </Array>
          </mxGeometry>
        </mxCell>
        <mxCell id="SkdfXTc7U5SoFgwyRIFH-55" value="User Mengunjungi Website" style="rounded=1;whiteSpace=wrap;html=1;" vertex="1" parent="1">
          <mxGeometry x="140" y="30" width="120" height="60" as="geometry" />
        </mxCell>
        <mxCell id="SkdfXTc7U5SoFgwyRIFH-56" value="Halaman Login" style="rounded=1;whiteSpace=wrap;html=1;" vertex="1" parent="1">
          <mxGeometry x="140" y="120" width="120" height="60" as="geometry" />
        </mxCell>
        <mxCell id="SkdfXTc7U5SoFgwyRIFH-57" value="Cek Tipe User" style="rhombus;whiteSpace=wrap;html=1;" vertex="1" parent="1">
          <mxGeometry x="360" y="110" width="90" height="80" as="geometry" />
        </mxCell>
        <mxCell id="SkdfXTc7U5SoFgwyRIFH-58" value="" style="endArrow=classic;html=1;rounded=0;exitX=0.5;exitY=1;exitDx=0;exitDy=0;entryX=0.5;entryY=0;entryDx=0;entryDy=0;" edge="1" parent="1" source="SkdfXTc7U5SoFgwyRIFH-55" target="SkdfXTc7U5SoFgwyRIFH-56">
          <mxGeometry width="50" height="50" relative="1" as="geometry">
            <mxPoint x="280" y="130" as="sourcePoint" />
            <mxPoint x="330" y="80" as="targetPoint" />
          </mxGeometry>
        </mxCell>
        <mxCell id="SkdfXTc7U5SoFgwyRIFH-59" value="" style="endArrow=classic;html=1;rounded=0;exitX=1;exitY=0.5;exitDx=0;exitDy=0;entryX=0;entryY=0.5;entryDx=0;entryDy=0;" edge="1" parent="1" source="SkdfXTc7U5SoFgwyRIFH-56" target="SkdfXTc7U5SoFgwyRIFH-57">
          <mxGeometry width="50" height="50" relative="1" as="geometry">
            <mxPoint x="500" y="310" as="sourcePoint" />
            <mxPoint x="550" y="260" as="targetPoint" />
          </mxGeometry>
        </mxCell>
        <mxCell id="SkdfXTc7U5SoFgwyRIFH-60" value="Halaman Calon Siswa" style="rounded=1;whiteSpace=wrap;html=1;" vertex="1" parent="1">
          <mxGeometry x="100" y="270" width="120" height="60" as="geometry" />
        </mxCell>
        <mxCell id="SkdfXTc7U5SoFgwyRIFH-61" value="Halaman Siswa" style="rounded=1;whiteSpace=wrap;html=1;" vertex="1" parent="1">
          <mxGeometry x="270" y="270" width="120" height="60" as="geometry" />
        </mxCell>
        <mxCell id="SkdfXTc7U5SoFgwyRIFH-62" value="Halaman Guru TU" style="rounded=1;whiteSpace=wrap;html=1;" vertex="1" parent="1">
          <mxGeometry x="440" y="270" width="120" height="60" as="geometry" />
        </mxCell>
        <mxCell id="SkdfXTc7U5SoFgwyRIFH-63" value="Halaman Admin" style="rounded=1;whiteSpace=wrap;html=1;" vertex="1" parent="1">
          <mxGeometry x="610" y="270" width="120" height="60" as="geometry" />
        </mxCell>
        <mxCell id="SkdfXTc7U5SoFgwyRIFH-64" value="Calon Siswa" style="endArrow=classic;html=1;rounded=0;exitX=0.5;exitY=1;exitDx=0;exitDy=0;entryX=0.5;entryY=0;entryDx=0;entryDy=0;" edge="1" parent="1" source="SkdfXTc7U5SoFgwyRIFH-57" target="SkdfXTc7U5SoFgwyRIFH-60">
          <mxGeometry width="50" height="50" relative="1" as="geometry">
            <mxPoint x="500" y="310" as="sourcePoint" />
            <mxPoint x="550" y="260" as="targetPoint" />
          </mxGeometry>
        </mxCell>
        <mxCell id="SkdfXTc7U5SoFgwyRIFH-65" value="Siswa" style="endArrow=classic;html=1;rounded=0;entryX=0.5;entryY=0;entryDx=0;entryDy=0;" edge="1" parent="1" target="SkdfXTc7U5SoFgwyRIFH-61">
          <mxGeometry width="50" height="50" relative="1" as="geometry">
            <mxPoint x="400" y="190" as="sourcePoint" />
            <mxPoint x="550" y="260" as="targetPoint" />
          </mxGeometry>
        </mxCell>
        <mxCell id="SkdfXTc7U5SoFgwyRIFH-66" value="Guru TU" style="endArrow=classic;html=1;rounded=0;entryX=0.5;entryY=0;entryDx=0;entryDy=0;" edge="1" parent="1" target="SkdfXTc7U5SoFgwyRIFH-62">
          <mxGeometry width="50" height="50" relative="1" as="geometry">
            <mxPoint x="400" y="190" as="sourcePoint" />
            <mxPoint x="550" y="260" as="targetPoint" />
          </mxGeometry>
        </mxCell>
        <mxCell id="SkdfXTc7U5SoFgwyRIFH-67" value="Admin" style="endArrow=classic;html=1;rounded=0;exitX=0.5;exitY=1;exitDx=0;exitDy=0;entryX=0.5;entryY=0;entryDx=0;entryDy=0;" edge="1" parent="1" source="SkdfXTc7U5SoFgwyRIFH-57" target="SkdfXTc7U5SoFgwyRIFH-63">
          <mxGeometry width="50" height="50" relative="1" as="geometry">
            <mxPoint x="500" y="310" as="sourcePoint" />
            <mxPoint x="550" y="260" as="targetPoint" />
          </mxGeometry>
        </mxCell>
        <mxCell id="SkdfXTc7U5SoFgwyRIFH-68" value="Bayar Biaya Pendaftaran" style="shape=parallelogram;perimeter=parallelogramPerimeter;whiteSpace=wrap;html=1;fixedSize=1;" vertex="1" parent="1">
          <mxGeometry x="100" y="360" width="120" height="60" as="geometry" />
        </mxCell>
        <mxCell id="SkdfXTc7U5SoFgwyRIFH-69" value="Mengiikuti Ujian" style="shape=parallelogram;perimeter=parallelogramPerimeter;whiteSpace=wrap;html=1;fixedSize=1;" vertex="1" parent="1">
          <mxGeometry x="100" y="450" width="120" height="60" as="geometry" />
        </mxCell>
        <mxCell id="SkdfXTc7U5SoFgwyRIFH-70" value="Selesai" style="rounded=1;whiteSpace=wrap;html=1;" vertex="1" parent="1">
          <mxGeometry x="340" y="600" width="120" height="60" as="geometry" />
        </mxCell>
        <mxCell id="SkdfXTc7U5SoFgwyRIFH-71" value="" style="endArrow=classic;html=1;rounded=0;exitX=0.5;exitY=1;exitDx=0;exitDy=0;entryX=0.5;entryY=0;entryDx=0;entryDy=0;" edge="1" parent="1" source="SkdfXTc7U5SoFgwyRIFH-60" target="SkdfXTc7U5SoFgwyRIFH-68">
          <mxGeometry width="50" height="50" relative="1" as="geometry">
            <mxPoint x="500" y="380" as="sourcePoint" />
            <mxPoint x="550" y="330" as="targetPoint" />
          </mxGeometry>
        </mxCell>
        <mxCell id="SkdfXTc7U5SoFgwyRIFH-72" value="" style="endArrow=classic;html=1;rounded=0;exitX=0.5;exitY=1;exitDx=0;exitDy=0;entryX=0.5;entryY=0;entryDx=0;entryDy=0;" edge="1" parent="1" source="SkdfXTc7U5SoFgwyRIFH-68" target="SkdfXTc7U5SoFgwyRIFH-69">
          <mxGeometry width="50" height="50" relative="1" as="geometry">
            <mxPoint x="500" y="380" as="sourcePoint" />
            <mxPoint x="550" y="330" as="targetPoint" />
          </mxGeometry>
        </mxCell>
        <mxCell id="SkdfXTc7U5SoFgwyRIFH-73" value="" style="endArrow=classic;html=1;rounded=0;exitX=0.5;exitY=1;exitDx=0;exitDy=0;" edge="1" parent="1" source="SkdfXTc7U5SoFgwyRIFH-69" target="SkdfXTc7U5SoFgwyRIFH-70">
          <mxGeometry width="50" height="50" relative="1" as="geometry">
            <mxPoint x="500" y="380" as="sourcePoint" />
            <mxPoint x="550" y="330" as="targetPoint" />
          </mxGeometry>
        </mxCell>
        <mxCell id="SkdfXTc7U5SoFgwyRIFH-75" value="Bayar Biaya &lt;br&gt;Sekolah" style="shape=parallelogram;perimeter=parallelogramPerimeter;whiteSpace=wrap;html=1;fixedSize=1;" vertex="1" parent="1">
          <mxGeometry x="270" y="360" width="120" height="60" as="geometry" />
        </mxCell>
        <mxCell id="SkdfXTc7U5SoFgwyRIFH-76" value="Mengikuti Ujian &lt;br&gt;UTS / UAS" style="shape=parallelogram;perimeter=parallelogramPerimeter;whiteSpace=wrap;html=1;fixedSize=1;" vertex="1" parent="1">
          <mxGeometry x="270" y="450" width="120" height="60" as="geometry" />
        </mxCell>
        <mxCell id="SkdfXTc7U5SoFgwyRIFH-77" value="Approval Pembayaran&lt;br&gt;&amp;nbsp;Siswa / &lt;br&gt;Calon Siswa" style="shape=parallelogram;perimeter=parallelogramPerimeter;whiteSpace=wrap;html=1;fixedSize=1;" vertex="1" parent="1">
          <mxGeometry x="440" y="360" width="120" height="60" as="geometry" />
        </mxCell>
        <mxCell id="SkdfXTc7U5SoFgwyRIFH-78" value="Approval PPDB &lt;br&gt;Data Calon Siswa" style="shape=parallelogram;perimeter=parallelogramPerimeter;whiteSpace=wrap;html=1;fixedSize=1;" vertex="1" parent="1">
          <mxGeometry x="440" y="450" width="120" height="60" as="geometry" />
        </mxCell>
        <mxCell id="SkdfXTc7U5SoFgwyRIFH-79" value="" style="endArrow=classic;html=1;rounded=0;exitX=0.5;exitY=1;exitDx=0;exitDy=0;entryX=0.5;entryY=0;entryDx=0;entryDy=0;" edge="1" parent="1" source="SkdfXTc7U5SoFgwyRIFH-61" target="SkdfXTc7U5SoFgwyRIFH-75">
          <mxGeometry width="50" height="50" relative="1" as="geometry">
            <mxPoint x="500" y="370" as="sourcePoint" />
            <mxPoint x="550" y="320" as="targetPoint" />
          </mxGeometry>
        </mxCell>
        <mxCell id="SkdfXTc7U5SoFgwyRIFH-80" value="" style="endArrow=classic;html=1;rounded=0;exitX=0.5;exitY=1;exitDx=0;exitDy=0;entryX=0.5;entryY=0;entryDx=0;entryDy=0;" edge="1" parent="1" source="SkdfXTc7U5SoFgwyRIFH-75" target="SkdfXTc7U5SoFgwyRIFH-76">
          <mxGeometry width="50" height="50" relative="1" as="geometry">
            <mxPoint x="500" y="370" as="sourcePoint" />
            <mxPoint x="550" y="320" as="targetPoint" />
          </mxGeometry>
        </mxCell>
        <mxCell id="SkdfXTc7U5SoFgwyRIFH-81" value="" style="endArrow=classic;html=1;rounded=0;exitX=0.5;exitY=1;exitDx=0;exitDy=0;entryX=0.25;entryY=0;entryDx=0;entryDy=0;" edge="1" parent="1" source="SkdfXTc7U5SoFgwyRIFH-76" target="SkdfXTc7U5SoFgwyRIFH-70">
          <mxGeometry width="50" height="50" relative="1" as="geometry">
            <mxPoint x="500" y="370" as="sourcePoint" />
            <mxPoint x="550" y="320" as="targetPoint" />
          </mxGeometry>
        </mxCell>
        <mxCell id="SkdfXTc7U5SoFgwyRIFH-83" value="" style="endArrow=classic;html=1;rounded=0;exitX=0.5;exitY=1;exitDx=0;exitDy=0;entryX=0.5;entryY=0;entryDx=0;entryDy=0;" edge="1" parent="1" source="SkdfXTc7U5SoFgwyRIFH-62" target="SkdfXTc7U5SoFgwyRIFH-77">
          <mxGeometry width="50" height="50" relative="1" as="geometry">
            <mxPoint x="500" y="370" as="sourcePoint" />
            <mxPoint x="550" y="320" as="targetPoint" />
          </mxGeometry>
        </mxCell>
        <mxCell id="SkdfXTc7U5SoFgwyRIFH-84" value="" style="endArrow=classic;html=1;rounded=0;exitX=0.5;exitY=1;exitDx=0;exitDy=0;entryX=0.5;entryY=0;entryDx=0;entryDy=0;" edge="1" parent="1" source="SkdfXTc7U5SoFgwyRIFH-77" target="SkdfXTc7U5SoFgwyRIFH-78">
          <mxGeometry width="50" height="50" relative="1" as="geometry">
            <mxPoint x="500" y="370" as="sourcePoint" />
            <mxPoint x="550" y="320" as="targetPoint" />
          </mxGeometry>
        </mxCell>
        <mxCell id="SkdfXTc7U5SoFgwyRIFH-85" value="" style="endArrow=classic;html=1;rounded=0;exitX=0.5;exitY=1;exitDx=0;exitDy=0;entryX=0.5;entryY=0;entryDx=0;entryDy=0;" edge="1" parent="1" source="SkdfXTc7U5SoFgwyRIFH-78" target="SkdfXTc7U5SoFgwyRIFH-70">
          <mxGeometry width="50" height="50" relative="1" as="geometry">
            <mxPoint x="500" y="370" as="sourcePoint" />
            <mxPoint x="550" y="320" as="targetPoint" />
          </mxGeometry>
        </mxCell>
        <mxCell id="SkdfXTc7U5SoFgwyRIFH-86" value="Tambah Data &lt;br&gt;Ujian" style="shape=parallelogram;perimeter=parallelogramPerimeter;whiteSpace=wrap;html=1;fixedSize=1;" vertex="1" parent="1">
          <mxGeometry x="610" y="360" width="120" height="60" as="geometry" />
        </mxCell>
        <mxCell id="SkdfXTc7U5SoFgwyRIFH-87" value="Tambah Data &lt;br&gt;Kelas" style="shape=parallelogram;perimeter=parallelogramPerimeter;whiteSpace=wrap;html=1;fixedSize=1;" vertex="1" parent="1">
          <mxGeometry x="610" y="450" width="120" height="60" as="geometry" />
        </mxCell>
        <mxCell id="SkdfXTc7U5SoFgwyRIFH-88" value="Tambah Data &lt;br&gt;Guru" style="shape=parallelogram;perimeter=parallelogramPerimeter;whiteSpace=wrap;html=1;fixedSize=1;" vertex="1" parent="1">
          <mxGeometry x="610" y="540" width="120" height="60" as="geometry" />
        </mxCell>
        <mxCell id="SkdfXTc7U5SoFgwyRIFH-89" value="Tambah Data &lt;br&gt;Metode &lt;br&gt;Pembayaran" style="shape=parallelogram;perimeter=parallelogramPerimeter;whiteSpace=wrap;html=1;fixedSize=1;" vertex="1" parent="1">
          <mxGeometry x="610" y="630" width="120" height="60" as="geometry" />
        </mxCell>
        <mxCell id="SkdfXTc7U5SoFgwyRIFH-90" value="Tambah Data &lt;br&gt;Biaya Pembayaran" style="shape=parallelogram;perimeter=parallelogramPerimeter;whiteSpace=wrap;html=1;fixedSize=1;" vertex="1" parent="1">
          <mxGeometry x="610" y="710" width="120" height="60" as="geometry" />
        </mxCell>
        <mxCell id="SkdfXTc7U5SoFgwyRIFH-91" value="" style="endArrow=classic;html=1;rounded=0;exitX=0.5;exitY=1;exitDx=0;exitDy=0;entryX=0.5;entryY=0;entryDx=0;entryDy=0;" edge="1" parent="1" source="SkdfXTc7U5SoFgwyRIFH-63" target="SkdfXTc7U5SoFgwyRIFH-86">
          <mxGeometry width="50" height="50" relative="1" as="geometry">
            <mxPoint x="500" y="490" as="sourcePoint" />
            <mxPoint x="550" y="440" as="targetPoint" />
          </mxGeometry>
        </mxCell>
        <mxCell id="SkdfXTc7U5SoFgwyRIFH-96" value="" style="endArrow=classic;html=1;rounded=0;exitX=0.5;exitY=1;exitDx=0;exitDy=0;entryX=0.5;entryY=0;entryDx=0;entryDy=0;" edge="1" parent="1" source="SkdfXTc7U5SoFgwyRIFH-86" target="SkdfXTc7U5SoFgwyRIFH-87">
          <mxGeometry width="50" height="50" relative="1" as="geometry">
            <mxPoint x="680" y="340" as="sourcePoint" />
            <mxPoint x="680" y="370" as="targetPoint" />
          </mxGeometry>
        </mxCell>
        <mxCell id="SkdfXTc7U5SoFgwyRIFH-97" value="" style="endArrow=classic;html=1;rounded=0;exitX=0.5;exitY=1;exitDx=0;exitDy=0;entryX=0.5;entryY=0;entryDx=0;entryDy=0;" edge="1" parent="1" source="SkdfXTc7U5SoFgwyRIFH-87" target="SkdfXTc7U5SoFgwyRIFH-88">
          <mxGeometry width="50" height="50" relative="1" as="geometry">
            <mxPoint x="610" y="530" as="sourcePoint" />
            <mxPoint x="660" y="480" as="targetPoint" />
          </mxGeometry>
        </mxCell>
        <mxCell id="SkdfXTc7U5SoFgwyRIFH-98" value="" style="endArrow=classic;html=1;rounded=0;exitX=0.5;exitY=1;exitDx=0;exitDy=0;entryX=0.5;entryY=0;entryDx=0;entryDy=0;" edge="1" parent="1" source="SkdfXTc7U5SoFgwyRIFH-88" target="SkdfXTc7U5SoFgwyRIFH-89">
          <mxGeometry width="50" height="50" relative="1" as="geometry">
            <mxPoint x="610" y="530" as="sourcePoint" />
            <mxPoint x="660" y="480" as="targetPoint" />
          </mxGeometry>
        </mxCell>
        <mxCell id="SkdfXTc7U5SoFgwyRIFH-99" value="" style="endArrow=classic;html=1;rounded=0;exitX=0.5;exitY=1;exitDx=0;exitDy=0;entryX=0.5;entryY=0;entryDx=0;entryDy=0;" edge="1" parent="1" source="SkdfXTc7U5SoFgwyRIFH-89" target="SkdfXTc7U5SoFgwyRIFH-90">
          <mxGeometry width="50" height="50" relative="1" as="geometry">
            <mxPoint x="560" y="700" as="sourcePoint" />
            <mxPoint x="610" y="650" as="targetPoint" />
          </mxGeometry>
        </mxCell>
        <mxCell id="SkdfXTc7U5SoFgwyRIFH-100" value="" style="endArrow=classic;html=1;rounded=0;exitX=0;exitY=0.5;exitDx=0;exitDy=0;entryX=1;entryY=1;entryDx=0;entryDy=0;" edge="1" parent="1" source="SkdfXTc7U5SoFgwyRIFH-90" target="SkdfXTc7U5SoFgwyRIFH-70">
          <mxGeometry width="50" height="50" relative="1" as="geometry">
            <mxPoint x="420" y="610" as="sourcePoint" />
            <mxPoint x="470" y="560" as="targetPoint" />
          </mxGeometry>
        </mxCell>
      </root>
    </mxGraphModel>
  </diagram>
</mxfile>
